<svg width="398" height="40" viewBox="0 0 398 40" fill="none" xmlns="http://www.w3.org/2000/svg">
  <mask id="path-1-outside-1_10_109" maskUnits="userSpaceOnUse" x="0" y="0" width="398" height="40"
    fill="red">
    <rect fill="white" width="398" height="40" />
    <path
      d="M1.88 32.46H16.004V31.712L11.428 31.14C10.108 30.964 9.14 29.952 9.14 28.588V7.512L27.312 32.46H29.072V5.444C29.072 4.124 29.996 3.024 31.316 2.848L34.66 2.408V1.66H20.58V2.408L25.156 2.98C26.476 3.156 27.444 4.168 27.444 5.532V25.86L13.188 6.016C10.24 1.88 7.16 1.66 1 1.66V2.408C3.684 2.804 6.324 3.816 7.468 5.84V28.676C7.468 29.996 6.544 31.096 5.224 31.272L1.88 31.712V32.46Z" />
    <path
      d="M59.475 33.164C68.803 33.164 75.711 26.652 75.711 17.06C75.711 7.468 68.803 1 59.475 1C50.147 1 43.195 7.468 43.195 17.06C43.195 26.652 50.147 33.164 59.475 33.164ZM59.519 31.624C51.423 31.624 47.859 24.628 47.859 16.048C47.859 8.04 51.599 2.54 59.431 2.54C67.351 2.54 71.003 9.404 71.003 17.72C71.003 25.992 67.659 31.624 59.519 31.624Z" />
    <path
      d="M98.7598 17.588H99.5518C104.084 30.128 111.828 35.76 116.272 38.532C110.024 29.996 106.812 24.364 103.952 17.192C109.32 16.268 112.268 13.76 112.268 9.404C112.268 3.86 107.252 1.66 98.3197 1.66H85.1198V2.408L87.9357 2.76C89.2557 2.936 90.2237 3.948 90.2237 5.312V28.808C90.2237 30.172 89.2557 31.184 87.9357 31.36L85.1198 31.712V32.46H99.6837V31.712L96.8678 31.36C95.5478 31.184 94.5798 30.172 94.5798 28.808V17.588H98.7598ZM94.5798 3.2H99.4197C105.404 3.2 108.088 5.268 108.088 9.624C108.088 13.98 105.096 16.048 98.7158 16.048H94.5798V3.2Z" />
    <path
      d="M124.299 32.46H138.423C149.335 32.46 156.331 26.916 156.331 17.148C156.331 6.896 149.335 1.66 138.423 1.66H124.299V2.408L127.115 2.76C128.435 2.936 129.403 3.948 129.403 5.312V28.808C129.403 30.172 128.435 31.184 127.115 31.36L124.299 31.712V32.46ZM136.047 30.92C134.727 30.92 133.759 30.172 133.759 28.808V3.2H138.071C144.759 3.2 151.667 5.972 151.667 17.148C151.667 27.488 145.551 30.92 138.071 30.92H136.047Z" />
    <path
      d="M166.013 32.46H180.577V31.712L177.761 31.36C176.441 31.184 175.473 30.172 175.473 28.808V5.312C175.473 3.948 176.441 2.936 177.761 2.76L180.577 2.408V1.66H166.013V2.408L168.829 2.76C170.149 2.936 171.117 3.948 171.117 5.312V28.808C171.117 30.172 170.149 31.184 168.829 31.36L166.013 31.712V32.46Z" />
    <path
      d="M206.708 33.12C211.812 33.12 217.268 31.184 220.832 27.84V25.508C217.4 28.72 212.692 30.348 208.028 30.348C201.12 30.348 195.444 25.332 195.444 17.06C195.444 8.392 199.404 2.54 206.708 2.54C214.012 2.54 216.828 7.952 215.86 17.456H216.916L219.556 5.708C217.048 2.848 210.228 1 206.708 1C197.072 1 190.56 7.468 190.56 17.06C190.56 26.696 197.116 33.12 206.708 33.12Z" />
    <path
      d="M263.502 17.588H264.294C268.826 30.128 276.57 35.76 281.014 38.532C274.766 29.996 271.554 24.364 268.694 17.192C274.062 16.268 277.01 13.76 277.01 9.404C277.01 3.86 271.994 1.66 263.062 1.66H249.862V2.408L252.678 2.76C253.998 2.936 254.966 3.948 254.966 5.312V28.808C254.966 30.172 253.998 31.184 252.678 31.36L249.862 31.712V32.46H264.426V31.712L261.61 31.36C260.29 31.184 259.322 30.172 259.322 28.808V17.588H263.502ZM259.322 3.2H264.162C270.146 3.2 272.83 5.268 272.83 9.624C272.83 13.98 269.838 16.048 263.458 16.048H259.322V3.2Z" />
    <path
      d="M305.024 33.164C314.352 33.164 321.26 26.652 321.26 17.06C321.26 7.468 314.352 1 305.024 1C295.696 1 288.744 7.468 288.744 17.06C288.744 26.652 295.696 33.164 305.024 33.164ZM305.068 31.624C296.972 31.624 293.408 24.628 293.408 16.048C293.408 8.04 297.148 2.54 304.98 2.54C312.9 2.54 316.552 9.404 316.552 17.72C316.552 25.992 313.208 31.624 305.068 31.624Z" />
    <path
      d="M345.301 33.12C351.901 33.12 356.565 29.776 356.565 24.936C356.565 13.1 338.349 14.508 338.349 7.952C338.349 4.828 341.517 2.54 346.225 2.54C351.637 2.54 353.661 5.444 354.189 13.1H355.201L355.641 3.112C353.045 1.968 349.745 1 346.225 1C339.361 1 335.093 4.08 335.093 8.392C335.093 19.876 353.397 18.072 353.397 25.596C353.397 29.116 349.789 31.58 345.741 31.58C340.065 31.58 337.777 28.544 336.721 19.832H335.709L334.829 30.26C337.865 31.932 340.681 33.12 345.301 33.12Z" />
    <path
      d="M367.571 32.46H395.511L396.831 22.076H396.083C393.399 29.028 391.551 30.92 387.635 30.92H379.319C377.999 30.92 377.031 30.172 377.031 28.808V17.588H387.371C388.559 17.588 389.747 18.424 389.835 19.568L390.319 24.716H391.067V9.36H390.319L389.835 14.068C389.703 15.256 388.559 16.048 387.371 16.048H377.031V3.2H386.755C390.011 3.2 392.827 4.74 394.587 12.088H395.335L394.455 1.66H367.571V2.408L370.387 2.76C371.707 2.936 372.675 3.948 372.675 5.312V28.808C372.675 30.172 371.707 31.184 370.387 31.36L367.571 31.712V32.46Z" />
  </mask>
  <path
    d="M1.88 32.46H16.004V31.712L11.428 31.14C10.108 30.964 9.14 29.952 9.14 28.588V7.512L27.312 32.46H29.072V5.444C29.072 4.124 29.996 3.024 31.316 2.848L34.66 2.408V1.66H20.58V2.408L25.156 2.98C26.476 3.156 27.444 4.168 27.444 5.532V25.86L13.188 6.016C10.24 1.88 7.16 1.66 1 1.66V2.408C3.684 2.804 6.324 3.816 7.468 5.84V28.676C7.468 29.996 6.544 31.096 5.224 31.272L1.88 31.712V32.46Z"
    fill="black" />
  <path
    d="M59.475 33.164C68.803 33.164 75.711 26.652 75.711 17.06C75.711 7.468 68.803 1 59.475 1C50.147 1 43.195 7.468 43.195 17.06C43.195 26.652 50.147 33.164 59.475 33.164ZM59.519 31.624C51.423 31.624 47.859 24.628 47.859 16.048C47.859 8.04 51.599 2.54 59.431 2.54C67.351 2.54 71.003 9.404 71.003 17.72C71.003 25.992 67.659 31.624 59.519 31.624Z"
    fill="black" />
  <path
    d="M98.7598 17.588H99.5518C104.084 30.128 111.828 35.76 116.272 38.532C110.024 29.996 106.812 24.364 103.952 17.192C109.32 16.268 112.268 13.76 112.268 9.404C112.268 3.86 107.252 1.66 98.3197 1.66H85.1198V2.408L87.9357 2.76C89.2557 2.936 90.2237 3.948 90.2237 5.312V28.808C90.2237 30.172 89.2557 31.184 87.9357 31.36L85.1198 31.712V32.46H99.6837V31.712L96.8678 31.36C95.5478 31.184 94.5798 30.172 94.5798 28.808V17.588H98.7598ZM94.5798 3.2H99.4197C105.404 3.2 108.088 5.268 108.088 9.624C108.088 13.98 105.096 16.048 98.7158 16.048H94.5798V3.2Z"
    fill="black" />
  <path
    d="M124.299 32.46H138.423C149.335 32.46 156.331 26.916 156.331 17.148C156.331 6.896 149.335 1.66 138.423 1.66H124.299V2.408L127.115 2.76C128.435 2.936 129.403 3.948 129.403 5.312V28.808C129.403 30.172 128.435 31.184 127.115 31.36L124.299 31.712V32.46ZM136.047 30.92C134.727 30.92 133.759 30.172 133.759 28.808V3.2H138.071C144.759 3.2 151.667 5.972 151.667 17.148C151.667 27.488 145.551 30.92 138.071 30.92H136.047Z"
    fill="black" />
  <path
    d="M166.013 32.46H180.577V31.712L177.761 31.36C176.441 31.184 175.473 30.172 175.473 28.808V5.312C175.473 3.948 176.441 2.936 177.761 2.76L180.577 2.408V1.66H166.013V2.408L168.829 2.76C170.149 2.936 171.117 3.948 171.117 5.312V28.808C171.117 30.172 170.149 31.184 168.829 31.36L166.013 31.712V32.46Z"
    fill="black" />
  <path
    d="M206.708 33.12C211.812 33.12 217.268 31.184 220.832 27.84V25.508C217.4 28.72 212.692 30.348 208.028 30.348C201.12 30.348 195.444 25.332 195.444 17.06C195.444 8.392 199.404 2.54 206.708 2.54C214.012 2.54 216.828 7.952 215.86 17.456H216.916L219.556 5.708C217.048 2.848 210.228 1 206.708 1C197.072 1 190.56 7.468 190.56 17.06C190.56 26.696 197.116 33.12 206.708 33.12Z"
    fill="black" />
  <path
    d="M263.502 17.588H264.294C268.826 30.128 276.57 35.76 281.014 38.532C274.766 29.996 271.554 24.364 268.694 17.192C274.062 16.268 277.01 13.76 277.01 9.404C277.01 3.86 271.994 1.66 263.062 1.66H249.862V2.408L252.678 2.76C253.998 2.936 254.966 3.948 254.966 5.312V28.808C254.966 30.172 253.998 31.184 252.678 31.36L249.862 31.712V32.46H264.426V31.712L261.61 31.36C260.29 31.184 259.322 30.172 259.322 28.808V17.588H263.502ZM259.322 3.2H264.162C270.146 3.2 272.83 5.268 272.83 9.624C272.83 13.98 269.838 16.048 263.458 16.048H259.322V3.2Z"
    fill="black" />
  <path
    d="M305.024 33.164C314.352 33.164 321.26 26.652 321.26 17.06C321.26 7.468 314.352 1 305.024 1C295.696 1 288.744 7.468 288.744 17.06C288.744 26.652 295.696 33.164 305.024 33.164ZM305.068 31.624C296.972 31.624 293.408 24.628 293.408 16.048C293.408 8.04 297.148 2.54 304.98 2.54C312.9 2.54 316.552 9.404 316.552 17.72C316.552 25.992 313.208 31.624 305.068 31.624Z"
    fill="black" />
  <path
    d="M345.301 33.12C351.901 33.12 356.565 29.776 356.565 24.936C356.565 13.1 338.349 14.508 338.349 7.952C338.349 4.828 341.517 2.54 346.225 2.54C351.637 2.54 353.661 5.444 354.189 13.1H355.201L355.641 3.112C353.045 1.968 349.745 1 346.225 1C339.361 1 335.093 4.08 335.093 8.392C335.093 19.876 353.397 18.072 353.397 25.596C353.397 29.116 349.789 31.58 345.741 31.58C340.065 31.58 337.777 28.544 336.721 19.832H335.709L334.829 30.26C337.865 31.932 340.681 33.12 345.301 33.12Z"
    fill="black" />
  <path
    d="M367.571 32.46H395.511L396.831 22.076H396.083C393.399 29.028 391.551 30.92 387.635 30.92H379.319C377.999 30.92 377.031 30.172 377.031 28.808V17.588H387.371C388.559 17.588 389.747 18.424 389.835 19.568L390.319 24.716H391.067V9.36H390.319L389.835 14.068C389.703 15.256 388.559 16.048 387.371 16.048H377.031V3.2H386.755C390.011 3.2 392.827 4.74 394.587 12.088H395.335L394.455 1.66H367.571V2.408L370.387 2.76C371.707 2.936 372.675 3.948 372.675 5.312V28.808C372.675 30.172 371.707 31.184 370.387 31.36L367.571 31.712V32.46Z"
    fill="black" />
  <path
    d="M1.88 32.46H16.004V31.712L11.428 31.14C10.108 30.964 9.14 29.952 9.14 28.588V7.512L27.312 32.46H29.072V5.444C29.072 4.124 29.996 3.024 31.316 2.848L34.66 2.408V1.66H20.58V2.408L25.156 2.98C26.476 3.156 27.444 4.168 27.444 5.532V25.86L13.188 6.016C10.24 1.88 7.16 1.66 1 1.66V2.408C3.684 2.804 6.324 3.816 7.468 5.84V28.676C7.468 29.996 6.544 31.096 5.224 31.272L1.88 31.712V32.46Z"
    stroke="black" stroke-width="2" mask="url(#path-1-outside-1_10_109)" />
  <path
    d="M59.475 33.164C68.803 33.164 75.711 26.652 75.711 17.06C75.711 7.468 68.803 1 59.475 1C50.147 1 43.195 7.468 43.195 17.06C43.195 26.652 50.147 33.164 59.475 33.164ZM59.519 31.624C51.423 31.624 47.859 24.628 47.859 16.048C47.859 8.04 51.599 2.54 59.431 2.54C67.351 2.54 71.003 9.404 71.003 17.72C71.003 25.992 67.659 31.624 59.519 31.624Z"
    stroke="black" stroke-width="2" mask="url(#path-1-outside-1_10_109)" />
  <path
    d="M98.7598 17.588H99.5518C104.084 30.128 111.828 35.76 116.272 38.532C110.024 29.996 106.812 24.364 103.952 17.192C109.32 16.268 112.268 13.76 112.268 9.404C112.268 3.86 107.252 1.66 98.3197 1.66H85.1198V2.408L87.9357 2.76C89.2557 2.936 90.2237 3.948 90.2237 5.312V28.808C90.2237 30.172 89.2557 31.184 87.9357 31.36L85.1198 31.712V32.46H99.6837V31.712L96.8678 31.36C95.5478 31.184 94.5798 30.172 94.5798 28.808V17.588H98.7598ZM94.5798 3.2H99.4197C105.404 3.2 108.088 5.268 108.088 9.624C108.088 13.98 105.096 16.048 98.7158 16.048H94.5798V3.2Z"
    stroke="black" stroke-width="2" mask="url(#path-1-outside-1_10_109)" />
  <path
    d="M124.299 32.46H138.423C149.335 32.46 156.331 26.916 156.331 17.148C156.331 6.896 149.335 1.66 138.423 1.66H124.299V2.408L127.115 2.76C128.435 2.936 129.403 3.948 129.403 5.312V28.808C129.403 30.172 128.435 31.184 127.115 31.36L124.299 31.712V32.46ZM136.047 30.92C134.727 30.92 133.759 30.172 133.759 28.808V3.2H138.071C144.759 3.2 151.667 5.972 151.667 17.148C151.667 27.488 145.551 30.92 138.071 30.92H136.047Z"
    stroke="black" stroke-width="2" mask="url(#path-1-outside-1_10_109)" />
  <path
    d="M166.013 32.46H180.577V31.712L177.761 31.36C176.441 31.184 175.473 30.172 175.473 28.808V5.312C175.473 3.948 176.441 2.936 177.761 2.76L180.577 2.408V1.66H166.013V2.408L168.829 2.76C170.149 2.936 171.117 3.948 171.117 5.312V28.808C171.117 30.172 170.149 31.184 168.829 31.36L166.013 31.712V32.46Z"
    stroke="black" stroke-width="2" mask="url(#path-1-outside-1_10_109)" />
  <path
    d="M206.708 33.12C211.812 33.12 217.268 31.184 220.832 27.84V25.508C217.4 28.72 212.692 30.348 208.028 30.348C201.12 30.348 195.444 25.332 195.444 17.06C195.444 8.392 199.404 2.54 206.708 2.54C214.012 2.54 216.828 7.952 215.86 17.456H216.916L219.556 5.708C217.048 2.848 210.228 1 206.708 1C197.072 1 190.56 7.468 190.56 17.06C190.56 26.696 197.116 33.12 206.708 33.12Z"
    stroke="black" stroke-width="2" mask="url(#path-1-outside-1_10_109)" />
  <path
    d="M263.502 17.588H264.294C268.826 30.128 276.57 35.76 281.014 38.532C274.766 29.996 271.554 24.364 268.694 17.192C274.062 16.268 277.01 13.76 277.01 9.404C277.01 3.86 271.994 1.66 263.062 1.66H249.862V2.408L252.678 2.76C253.998 2.936 254.966 3.948 254.966 5.312V28.808C254.966 30.172 253.998 31.184 252.678 31.36L249.862 31.712V32.46H264.426V31.712L261.61 31.36C260.29 31.184 259.322 30.172 259.322 28.808V17.588H263.502ZM259.322 3.2H264.162C270.146 3.2 272.83 5.268 272.83 9.624C272.83 13.98 269.838 16.048 263.458 16.048H259.322V3.2Z"
    stroke="black" stroke-width="2" mask="url(#path-1-outside-1_10_109)" />
  <path
    d="M305.024 33.164C314.352 33.164 321.26 26.652 321.26 17.06C321.26 7.468 314.352 1 305.024 1C295.696 1 288.744 7.468 288.744 17.06C288.744 26.652 295.696 33.164 305.024 33.164ZM305.068 31.624C296.972 31.624 293.408 24.628 293.408 16.048C293.408 8.04 297.148 2.54 304.98 2.54C312.9 2.54 316.552 9.404 316.552 17.72C316.552 25.992 313.208 31.624 305.068 31.624Z"
    stroke="black" stroke-width="2" mask="url(#path-1-outside-1_10_109)" />
  <path
    d="M345.301 33.12C351.901 33.12 356.565 29.776 356.565 24.936C356.565 13.1 338.349 14.508 338.349 7.952C338.349 4.828 341.517 2.54 346.225 2.54C351.637 2.54 353.661 5.444 354.189 13.1H355.201L355.641 3.112C353.045 1.968 349.745 1 346.225 1C339.361 1 335.093 4.08 335.093 8.392C335.093 19.876 353.397 18.072 353.397 25.596C353.397 29.116 349.789 31.58 345.741 31.58C340.065 31.58 337.777 28.544 336.721 19.832H335.709L334.829 30.26C337.865 31.932 340.681 33.12 345.301 33.12Z"
    stroke="black" stroke-width="2" mask="url(#path-1-outside-1_10_109)" />
  <path
    d="M367.571 32.46H395.511L396.831 22.076H396.083C393.399 29.028 391.551 30.92 387.635 30.92H379.319C377.999 30.92 377.031 30.172 377.031 28.808V17.588H387.371C388.559 17.588 389.747 18.424 389.835 19.568L390.319 24.716H391.067V9.36H390.319L389.835 14.068C389.703 15.256 388.559 16.048 387.371 16.048H377.031V3.2H386.755C390.011 3.2 392.827 4.74 394.587 12.088H395.335L394.455 1.66H367.571V2.408L370.387 2.76C371.707 2.936 372.675 3.948 372.675 5.312V28.808C372.675 30.172 371.707 31.184 370.387 31.36L367.571 31.712V32.46Z"
    stroke="black" stroke-width="2" mask="url(#path-1-outside-1_10_109)" />
</svg>